<svg width="1440" height="431" viewBox="0 0 1440 431" fill="none" xmlns="http://www.w3.org/2000/svg">
<g style="mix-blend-mode:overlay">
<path fill-rule="evenodd" clip-rule="evenodd" d="M1052.58 4.78037C1051.98 12.3021 1048.68 19.2978 1043.43 24.2287C1038.17 29.1594 1031.39 31.6213 1024.56 31.0728C1017.73 30.5242 1011.43 27.0101 1007.03 21.3036C1002.64 15.597 1000.51 8.16544 1001.11 0.643705C1001.11 0.643705 1015.32 8.02956 1026.85 2.71204C1038.38 -2.6055 1052.58 4.78037 1052.58 4.78037ZM1059.64 24.7557C1058.01 27.6579 1056.12 30.2597 1054.05 32.4164C1052.78 33.4546 1051.71 34.4373 1050.71 35.3488C1045.49 40.1267 1042.4 42.9466 1024.68 41.5226C1006.2 40.0368 1004.05 37.3461 998.814 30.7946C998.074 29.8691 997.274 28.8664 996.357 27.7793C988.947 18.9968 989.195 10.7738 990.028 0.45752L997.381 1.04847C996.195 15.7431 1001.95 23.3105 1001.95 23.3105C1001.95 23.3105 1006.86 33.1348 1025.24 34.6122C1043.62 36.0895 1048.93 27.0868 1048.93 27.0868C1048.93 27.0868 1056.09 17.077 1057.07 4.97554L1064.77 5.59497C1065.75 5.37774 1066.76 5.27641 1067.77 5.2977C1070.34 5.35139 1072.82 6.18126 1074.86 7.66413C1076.89 9.14703 1078.37 11.2039 1079.08 13.5293C1079.78 15.8547 1079.67 18.3247 1078.77 20.5726C1077.86 22.8205 1076.2 24.7265 1074.04 26.0075C1071.89 27.2885 1069.34 27.8764 1066.78 27.6838C1064.23 27.4913 1061.8 26.5283 1059.85 24.9382C1059.78 24.8781 1059.71 24.8173 1059.64 24.7557ZM1064.52 11.8962C1065.46 11.3362 1066.57 11.0485 1067.7 11.0721C1068.94 11.0981 1070.14 11.5005 1071.13 12.2195C1072.12 12.9385 1072.83 13.9358 1073.18 15.0633C1073.52 16.1908 1073.46 17.3885 1073.03 18.4784C1072.59 19.5684 1071.78 20.4925 1070.74 21.1136C1069.69 21.7349 1068.46 22.0198 1067.22 21.9265C1065.98 21.8331 1064.8 21.3662 1063.86 20.5952C1063.25 20.0992 1062.76 19.4945 1062.42 18.8217C1063.28 16.5959 1063.99 14.2716 1064.52 11.8962ZM990.666 44.0086L1057.78 49.4027C1059.04 49.5042 1059.97 50.7475 1059.86 52.1797C1059.74 53.6119 1058.63 54.6906 1057.36 54.589L990.248 49.195C988.984 49.0934 988.054 47.8501 988.169 46.4179C988.285 44.9858 989.403 43.9071 990.666 44.0086ZM1054.81 239.934C1054.08 244.419 1051.78 248.461 1048.39 251.171C1045 253.881 1040.81 255.037 1036.74 254.385C1032.67 253.733 1029.06 251.327 1026.69 247.695C1024.32 244.063 1023.4 239.503 1024.12 235.019C1024.12 235.019 1032.29 240.122 1039.46 237.477C1046.63 234.831 1054.81 239.934 1054.81 239.934ZM1058.09 252.253C1056.98 253.918 1055.72 255.39 1054.38 256.586C1053.56 257.149 1052.87 257.688 1052.23 258.187L1052.23 258.187C1048.87 260.807 1046.88 262.353 1036.32 260.661C1025.3 258.895 1024.14 257.179 1021.31 253.001C1020.91 252.411 1020.48 251.771 1019.98 251.075C1015.95 245.456 1016.49 240.533 1017.48 234.383L1021.86 235.085C1020.45 243.846 1023.54 248.658 1023.54 248.658C1023.54 248.658 1026.02 254.785 1036.98 256.541C1047.94 258.297 1051.56 253.146 1051.56 253.146C1051.56 253.146 1056.33 247.478 1057.49 240.264L1062.08 241C1062.68 240.915 1063.29 240.902 1063.9 240.963C1065.43 241.117 1066.88 241.732 1068.03 242.718C1069.18 243.704 1069.97 245.008 1070.29 246.437C1070.6 247.865 1070.42 249.342 1069.76 250.648C1069.11 251.954 1068.03 253.019 1066.67 253.686C1065.32 254.352 1063.76 254.585 1062.24 254.348C1060.71 254.112 1059.3 253.419 1058.21 252.373C1058.17 252.334 1058.13 252.294 1058.09 252.253ZM1061.63 244.768C1062.22 244.477 1062.9 244.357 1063.57 244.424C1064.32 244.499 1065.02 244.797 1065.58 245.275C1066.14 245.753 1066.52 246.385 1066.67 247.078C1066.82 247.771 1066.74 248.487 1066.42 249.12C1066.1 249.753 1065.58 250.27 1064.92 250.593C1064.26 250.916 1063.51 251.029 1062.77 250.914C1062.03 250.8 1061.35 250.464 1060.82 249.957C1060.48 249.63 1060.21 249.244 1060.04 248.824C1060.66 247.53 1061.2 246.169 1061.63 244.768ZM1015.79 260.544L1055.81 266.954C1056.56 267.075 1057.06 267.865 1056.92 268.719C1056.78 269.572 1056.06 270.167 1055.31 270.046L1015.29 263.636C1014.54 263.516 1014.04 262.726 1014.18 261.872C1014.32 261.018 1015.04 260.423 1015.79 260.544ZM650.565 75.3772C651.522 78.9399 651.155 82.7001 649.546 85.8306C647.936 88.961 645.215 91.2054 641.983 92.0699C638.75 92.9344 635.269 92.3482 632.307 90.4403C629.345 88.5324 627.143 85.459 626.187 81.8964C626.187 81.8964 633.941 82.9723 638.376 78.6368C642.811 74.3013 650.565 75.3772 650.565 75.3772ZM657.095 83.4204C656.824 85.0225 656.382 86.5298 655.784 87.8615C655.37 88.5472 655.036 89.1757 654.727 89.7585C653.106 92.8139 652.149 94.6171 643.756 96.8613C635 99.2029 633.568 98.3157 630.082 96.1556C629.59 95.8504 629.056 95.5198 628.455 95.1693C623.601 92.3381 622.364 88.5113 621.052 83.625L624.534 82.6937C626.403 89.6538 630.295 92.1968 630.295 92.1968C630.295 92.1968 634.171 95.9164 642.878 93.5882C651.584 91.2599 652.55 86.2455 652.55 86.2455C652.55 86.2455 654.201 80.4651 652.662 74.7332L656.313 73.7571C656.726 73.4974 657.173 73.2859 657.645 73.1293C658.833 72.7346 660.113 72.7102 661.295 73.0598C662.476 73.4093 663.495 74.1141 664.202 75.0696C664.908 76.0251 665.264 77.1803 665.216 78.3636C665.168 79.547 664.719 80.6956 663.935 81.6386C663.152 82.5817 662.076 83.2692 660.867 83.5989C659.659 83.9286 658.382 83.8829 657.226 83.4688C657.182 83.4531 657.139 83.437 657.095 83.4204ZM657.229 76.7008C657.573 76.2879 658.034 75.9746 658.558 75.8008C659.134 75.6095 659.755 75.5977 660.327 75.7672C660.9 75.9366 661.394 76.2784 661.737 76.7417C662.079 77.2049 662.252 77.765 662.229 78.3388C662.205 78.9126 661.987 79.4695 661.608 79.9268C661.228 80.3841 660.706 80.7174 660.12 80.8773C659.534 81.0372 658.915 81.015 658.354 80.8142C657.994 80.685 657.67 80.4863 657.401 80.2327C657.432 79.0671 657.376 77.881 657.229 76.7008ZM628.502 103.573L660.291 95.0727C660.889 94.9126 661.522 95.3328 661.704 96.0111C661.887 96.6895 661.549 97.3691 660.951 97.5292L629.162 106.03C628.563 106.19 627.931 105.77 627.748 105.091C627.566 104.413 627.904 103.733 628.502 103.573ZM237.877 151.227C239.618 157.711 238.95 164.554 236.021 170.252C233.091 175.949 228.14 180.033 222.257 181.607C216.373 183.18 210.039 182.113 204.648 178.641C199.257 175.169 195.25 169.575 193.509 163.092C193.509 163.092 207.622 165.05 215.693 157.159C223.765 149.269 237.877 151.227 237.877 151.227ZM249.761 165.865C249.268 168.781 248.463 171.524 247.374 173.948C246.62 175.196 246.014 176.339 245.451 177.4L245.451 177.4C242.5 182.961 240.759 186.243 225.485 190.327C209.549 194.588 206.943 192.974 200.599 189.042L200.599 189.042C199.703 188.487 198.732 187.885 197.638 187.248C188.803 182.095 186.552 175.13 184.164 166.238L190.502 164.543C193.903 177.21 200.986 181.838 200.986 181.838C200.986 181.838 208.04 188.607 223.886 184.37C239.731 180.133 241.489 171.007 241.489 171.007C241.489 171.007 244.493 160.487 241.693 150.055L248.336 148.279C249.089 147.806 249.903 147.421 250.761 147.136C252.924 146.418 255.254 146.373 257.403 147.01C259.553 147.646 261.408 148.928 262.694 150.667C263.979 152.406 264.627 154.509 264.539 156.662C264.452 158.816 263.635 160.906 262.209 162.623C260.784 164.339 258.826 165.59 256.626 166.19C254.426 166.79 252.102 166.707 249.998 165.953C249.919 165.925 249.84 165.896 249.761 165.865ZM250.004 153.636C250.63 152.885 251.47 152.314 252.422 151.998C253.471 151.65 254.601 151.628 255.643 151.937C256.685 152.245 257.585 152.867 258.208 153.71C258.832 154.554 259.145 155.573 259.103 156.617C259.061 157.661 258.664 158.675 257.973 159.507C257.282 160.339 256.333 160.946 255.266 161.237C254.199 161.528 253.072 161.488 252.052 161.122C251.396 160.887 250.807 160.525 250.318 160.064C250.373 157.943 250.272 155.784 250.004 153.636ZM197.724 202.542L255.577 187.072C256.666 186.78 257.818 187.545 258.149 188.78C258.481 190.014 257.866 191.251 256.777 191.542L198.924 207.013C197.835 207.304 196.683 206.54 196.351 205.305C196.02 204.07 196.634 202.833 197.724 202.542ZM110.737 384.95C109.965 391.618 106.82 397.736 101.996 401.958C97.1711 406.179 91.0613 408.159 85.0106 407.461C78.9599 406.763 73.4637 403.444 69.7313 398.236C65.9989 393.027 64.336 386.355 65.1083 379.686C65.1083 379.686 77.5081 386.69 87.9228 382.318C98.3374 377.946 110.737 384.95 110.737 384.95ZM116.389 402.926C114.856 405.456 113.095 407.711 111.189 409.564C110.028 410.448 109.042 411.289 108.128 412.068C103.334 416.155 100.504 418.566 84.7964 416.754C68.4075 414.864 66.5801 412.405 62.1307 406.42L62.1307 406.42L62.1305 406.419C61.502 405.574 60.8211 404.658 60.0395 403.663C53.7246 395.627 54.1995 388.325 55.2588 379.179L61.7772 379.931C60.2683 392.958 65.1473 399.863 65.1473 399.863C65.1473 399.863 69.21 408.748 85.506 410.628C101.802 412.508 106.802 404.668 106.802 404.668C106.802 404.668 113.475 395.99 114.717 385.262L121.55 386.05C122.424 385.887 123.322 385.828 124.226 385.878C126.502 386.005 128.684 386.819 130.449 388.201C132.213 389.582 133.465 391.456 134.019 393.545C134.573 395.634 134.399 397.826 133.524 399.797C132.649 401.767 131.118 403.411 129.16 404.483C127.201 405.555 124.919 405.999 122.652 405.749C120.386 405.499 118.255 404.568 116.577 403.095C116.514 403.039 116.451 402.983 116.389 402.926ZM121.125 391.644C121.984 391.175 122.975 390.954 123.977 391.009C125.081 391.071 126.139 391.466 126.995 392.135C127.85 392.805 128.457 393.714 128.726 394.727C128.995 395.74 128.91 396.803 128.486 397.758C128.061 398.713 127.319 399.51 126.37 400.03C125.42 400.55 124.314 400.765 123.215 400.644C122.116 400.523 121.083 400.072 120.269 399.357C119.745 398.898 119.331 398.345 119.047 397.736C119.88 395.784 120.582 393.74 121.125 391.644ZM54.4788 417.916L113.977 424.78C115.097 424.909 115.886 426.043 115.739 427.313C115.592 428.582 114.564 429.507 113.444 429.378L53.9462 422.514C52.826 422.385 52.0371 421.251 52.1842 419.981C52.3312 418.711 53.3586 417.787 54.4788 417.916ZM33.5707 19.8363C32.7983 26.5045 29.6539 32.6222 24.8292 36.8437C20.0046 41.0652 13.8947 43.0446 7.84402 42.3466C1.79331 41.6486 -3.70288 38.3302 -7.43526 33.1216C-11.1676 27.9128 -12.8306 21.2405 -12.0582 14.5724C-12.0582 14.5724 0.341564 21.5763 10.7562 17.2044C21.1709 12.8324 33.5707 19.8363 33.5707 19.8363ZM39.2228 37.8119C37.689 40.3419 35.9287 42.5967 34.0224 44.4502C32.8618 45.334 31.8757 46.1745 30.9612 46.9541C26.1671 51.0406 23.3376 53.4524 7.62989 51.6403C-8.759 49.7497 -10.5864 47.2913 -15.0358 41.3058L-15.0358 41.3057L-15.036 41.3055C-15.6645 40.46 -16.3454 39.544 -17.127 38.5494C-23.4419 30.5134 -22.967 23.2107 -21.9077 14.0652L-15.3893 14.8172C-16.8982 27.8442 -12.0192 34.7489 -12.0192 34.7489C-12.0192 34.7489 -7.95653 43.6341 8.33949 45.5141C24.6355 47.3941 29.6354 39.5543 29.6354 39.5543C29.6354 39.5543 36.3082 30.8762 37.5509 20.148L44.3834 20.9363C45.2571 20.7732 46.156 20.7142 47.0591 20.7644C49.3355 20.8911 51.5178 21.7055 53.282 23.0865C55.0464 24.4676 56.2984 26.3417 56.8524 28.4307C57.4064 30.5197 57.2329 32.7122 56.3575 34.6826C55.482 36.6531 53.9514 38.2965 51.993 39.3688C50.0345 40.4411 47.7525 40.8853 45.4859 40.6353C43.2193 40.3853 41.0887 39.4543 39.4106 37.9808C39.3473 37.9251 39.2847 37.8688 39.2228 37.8119ZM43.9584 26.5301C44.8176 26.0614 45.8088 25.8397 46.8109 25.8955C47.9147 25.9569 48.9727 26.3517 49.8282 27.0214C50.6837 27.691 51.2908 28.5997 51.5594 29.6126C51.828 30.6255 51.7438 31.6886 51.3194 32.644C50.8948 33.5994 50.1527 34.3962 49.2032 34.9161C48.2536 35.4362 47.1471 35.6515 46.0481 35.5303C44.949 35.409 43.916 34.9577 43.1024 34.2432C42.5789 33.7836 42.1642 33.2309 41.8801 32.6223C42.7138 30.6701 43.4153 28.6256 43.9584 26.5301ZM-22.6878 52.802L36.8101 59.6659C37.9303 59.7951 38.7192 60.9291 38.5721 62.1988C38.4251 63.4684 37.3977 64.3929 36.2775 64.2637L-23.2203 57.3998C-24.3405 57.2705 -25.1294 56.1365 -24.9824 54.8669C-24.8353 53.5972 -23.808 52.6727 -22.6878 52.802ZM977.831 398.264C977.057 403.076 974.58 407.414 970.945 410.322C967.31 413.23 962.814 414.471 958.447 413.772C954.08 413.072 950.199 410.49 947.659 406.592C945.118 402.694 944.126 397.801 944.9 392.988C944.9 392.988 953.67 398.465 961.366 395.626C969.061 392.787 977.831 398.264 977.831 398.264ZM981.355 411.484C980.161 413.27 978.812 414.85 977.37 416.134C976.5 416.738 975.758 417.316 975.069 417.852L975.069 417.852C971.46 420.664 969.33 422.323 957.994 420.507C946.166 418.612 944.919 416.77 941.883 412.286V412.286L941.883 412.286C941.454 411.653 940.989 410.967 940.454 410.22C936.131 404.189 936.709 398.906 937.771 392.306L942.476 393.06C940.963 402.461 944.281 407.626 944.281 407.626C944.281 407.626 946.944 414.201 958.705 416.085C970.466 417.97 974.344 412.442 974.344 412.442C974.344 412.442 979.463 406.36 980.709 398.617L985.64 399.407C986.279 399.317 986.933 399.302 987.586 399.368C989.234 399.532 990.791 400.193 992.026 401.251C993.262 402.309 994.11 403.709 994.445 405.242C994.78 406.775 994.584 408.36 993.885 409.761C993.187 411.163 992.024 412.306 990.569 413.021C989.114 413.737 987.444 413.986 985.808 413.732C984.172 413.479 982.656 412.735 981.486 411.613C981.442 411.57 981.398 411.527 981.355 411.484ZM985.152 403.451C985.791 403.139 986.517 403.01 987.242 403.082C988.041 403.162 988.795 403.482 989.395 403.995C989.994 404.508 990.405 405.187 990.567 405.93C990.73 406.673 990.635 407.442 990.296 408.121C989.957 408.801 989.394 409.355 988.688 409.702C987.983 410.049 987.173 410.17 986.38 410.047C985.586 409.924 984.851 409.563 984.284 409.019C983.919 408.669 983.636 408.255 983.449 407.804C984.117 406.415 984.691 404.954 985.152 403.451ZM935.963 420.382L978.904 427.26C979.713 427.39 980.249 428.238 980.101 429.154C979.954 430.07 979.179 430.708 978.371 430.579L935.43 423.7C934.621 423.57 934.085 422.723 934.233 421.806C934.38 420.89 935.155 420.252 935.963 420.382ZM1449.34 212.04C1447.01 216.731 1443.08 220.391 1438.42 222.216C1433.76 224.042 1428.75 223.882 1424.49 221.772C1420.23 219.662 1417.08 215.775 1415.72 210.966C1414.36 206.157 1414.91 200.82 1417.24 196.129C1417.24 196.129 1424.49 204.544 1433.29 204.084C1442.1 203.624 1449.34 212.04 1449.34 212.04ZM1448.73 226.727C1446.93 228.179 1445.04 229.37 1443.15 230.227C1442.06 230.57 1441.12 230.926 1440.24 231.257V231.257C1435.63 232.991 1432.92 234.015 1421.87 228.538C1410.34 222.823 1409.65 220.536 1407.97 214.967V214.967V214.967C1407.73 214.181 1407.47 213.328 1407.16 212.392C1404.66 204.826 1406.94 199.59 1410.15 193.156L1414.73 195.429C1410.17 204.594 1411.92 210.95 1411.92 210.95C1411.92 210.95 1412.55 218.545 1424.01 224.228C1435.48 229.91 1441.23 225.475 1441.23 225.475C1441.23 225.475 1448.42 220.866 1452.18 213.319L1456.99 215.702C1457.67 215.813 1458.35 216.007 1459 216.282C1460.63 216.976 1462.02 218.15 1462.95 219.629C1463.88 221.109 1464.3 222.815 1464.15 224.495C1464.01 226.175 1463.3 227.738 1462.13 228.954C1460.97 230.169 1459.41 230.971 1457.69 231.242C1455.97 231.512 1454.17 231.235 1452.57 230.453C1450.98 229.671 1449.66 228.425 1448.82 226.901C1448.79 226.843 1448.76 226.785 1448.73 226.727ZM1455.19 219.696C1455.95 219.579 1456.73 219.677 1457.45 219.983C1458.25 220.319 1458.92 220.889 1459.37 221.606C1459.82 222.323 1460.03 223.151 1459.95 223.965C1459.88 224.78 1459.54 225.538 1458.98 226.127C1458.41 226.716 1457.65 227.105 1456.82 227.236C1455.98 227.367 1455.12 227.233 1454.34 226.854C1453.57 226.475 1452.93 225.871 1452.52 225.132C1452.26 224.656 1452.1 224.141 1452.05 223.619C1453.18 222.406 1454.24 221.091 1455.19 219.696ZM1399.3 221.386L1441.16 242.133C1441.95 242.523 1442.23 243.564 1441.78 244.457C1441.34 245.35 1440.34 245.758 1439.55 245.367L1397.7 224.621C1396.91 224.23 1396.63 223.189 1397.07 222.296C1397.52 221.403 1398.52 220.996 1399.3 221.386ZM1293.3 75.3079C1294.22 80.4627 1293.26 85.7403 1290.61 89.9796C1287.96 94.2188 1283.84 97.0726 1279.16 97.913C1274.49 98.7534 1269.63 97.5116 1265.67 94.4609C1261.7 91.41 1258.95 86.8002 1258.02 81.6453C1258.02 81.6453 1268.87 84.0863 1275.66 78.4766C1282.45 72.8668 1293.3 75.3079 1293.3 75.3079ZM1301.58 87.4633C1301.01 89.6984 1300.2 91.7788 1299.19 93.5925C1298.53 94.5139 1297.98 95.3636 1297.47 96.1518C1294.82 100.283 1293.25 102.722 1281.1 104.904C1268.43 107.18 1266.51 105.755 1261.84 102.285L1261.84 102.285V102.285C1261.18 101.795 1260.46 101.264 1259.65 100.697C1253.12 96.1151 1251.82 90.5532 1250.55 83.4832L1255.59 82.5779C1257.4 92.6485 1262.61 96.7081 1262.61 96.7081C1262.61 96.7081 1267.65 102.431 1280.25 100.168C1292.85 97.9042 1294.81 90.9227 1294.81 90.9227C1294.81 90.9227 1297.83 82.9384 1296.34 74.6449L1301.62 73.6959C1302.24 73.3775 1302.89 73.1311 1303.58 72.9654C1305.31 72.5477 1307.12 72.6648 1308.75 73.2993C1310.38 73.9339 1311.74 75.0521 1312.63 76.4878C1313.51 77.9236 1313.88 79.6004 1313.67 81.2693C1313.46 82.9383 1312.69 84.5104 1311.47 85.7522C1310.25 86.9939 1308.65 87.8393 1306.9 88.1627C1305.15 88.4861 1303.34 88.2702 1301.76 87.5472C1301.7 87.5199 1301.64 87.4919 1301.58 87.4633ZM1302.57 77.9701C1303.1 77.4267 1303.79 77.0379 1304.55 76.8541C1305.39 76.6515 1306.27 76.7083 1307.06 77.016C1307.85 77.3237 1308.51 77.8658 1308.94 78.562C1309.37 79.2581 1309.55 80.0712 1309.45 80.8804C1309.35 81.6896 1308.97 82.4519 1308.38 83.0539C1307.79 83.6562 1307.01 84.066 1306.16 84.2228C1305.31 84.3796 1304.44 84.275 1303.67 83.9244C1303.18 83.6989 1302.74 83.3794 1302.39 82.9887C1302.57 81.3428 1302.64 79.6576 1302.57 77.9701ZM1258.72 112.595L1304.72 104.331C1305.58 104.175 1306.43 104.845 1306.6 105.826C1306.78 106.808 1306.22 107.73 1305.36 107.885L1259.36 116.149C1258.5 116.305 1257.65 115.635 1257.47 114.654C1257.3 113.672 1257.85 112.75 1258.72 112.595ZM1350.88 385.789C1350.67 391.022 1348.57 395.964 1345.07 399.529C1341.56 403.093 1336.92 404.987 1332.17 404.794C1327.42 404.602 1322.95 402.338 1319.74 398.501C1316.54 394.664 1314.85 389.569 1315.07 384.335C1315.07 384.335 1325.12 389.067 1332.97 385.062C1340.82 381.057 1350.88 385.789 1350.88 385.789ZM1356.32 399.449C1355.28 401.506 1354.04 403.362 1352.66 404.915C1351.81 405.67 1351.09 406.381 1350.42 407.041L1350.42 407.041C1346.93 410.498 1344.87 412.539 1332.54 412.039C1319.68 411.517 1318.11 409.71 1314.3 405.31C1313.77 404.688 1313.18 404.015 1312.52 403.286C1307.14 397.399 1307.08 391.689 1307.37 384.511L1312.49 384.719C1312.07 394.943 1316.27 400.033 1316.27 400.033C1316.27 400.033 1319.95 406.711 1332.74 407.23C1345.53 407.75 1348.96 401.36 1348.96 401.36C1348.96 401.36 1353.65 394.22 1353.99 385.801L1359.36 386.018C1360.03 385.841 1360.72 385.743 1361.43 385.73C1363.21 385.696 1364.95 386.204 1366.41 387.176C1367.86 388.148 1368.94 389.534 1369.49 391.128C1370.05 392.721 1370.04 394.437 1369.47 396.021C1368.91 397.605 1367.81 398.973 1366.35 399.92C1364.89 400.868 1363.14 401.346 1361.36 401.283C1359.58 401.219 1357.87 400.618 1356.48 399.569C1356.43 399.529 1356.37 399.489 1356.32 399.449ZM1359.35 390.396C1359.99 389.981 1360.75 389.751 1361.53 389.737C1362.4 389.72 1363.24 389.966 1363.95 390.438C1364.65 390.909 1365.18 391.581 1365.44 392.354C1365.71 393.127 1365.71 393.959 1365.43 394.727C1365.16 395.495 1364.63 396.158 1363.92 396.617C1363.21 397.077 1362.36 397.308 1361.5 397.278C1360.64 397.247 1359.81 396.956 1359.13 396.447C1358.7 396.12 1358.34 395.714 1358.09 395.256C1358.62 393.689 1359.05 392.058 1359.35 390.396ZM1309.02 414.698L1355.72 416.593C1356.59 416.629 1357.27 417.466 1357.23 418.462C1357.19 419.459 1356.45 420.238 1355.57 420.202L1308.87 418.307C1307.99 418.271 1307.31 417.435 1307.35 416.438C1307.39 415.442 1308.14 414.663 1309.02 414.698ZM642.447 376.353C641.064 383.915 637.011 390.671 631.181 395.134C625.351 399.597 618.221 401.402 611.359 400.152C604.497 398.902 598.466 394.699 594.592 388.468C590.718 382.237 589.319 374.488 590.702 366.926C590.702 366.926 604.345 375.857 616.574 371.64C628.803 367.423 642.447 376.353 642.447 376.353ZM647.556 397.316C645.613 400.093 643.432 402.538 641.115 404.513C639.722 405.436 638.533 406.323 637.429 407.145L637.429 407.145C631.644 411.457 628.23 414.001 610.417 410.756C591.831 407.37 589.927 404.424 585.293 397.252L585.293 397.252C584.638 396.238 583.928 395.141 583.11 393.946C576.497 384.291 577.588 375.982 579.485 365.61L586.877 366.957C584.175 381.73 589.232 389.985 589.232 389.985C589.232 389.985 593.207 400.442 611.687 403.808C630.168 407.175 636.47 398.591 636.47 398.591C636.47 398.591 644.746 389.173 646.971 377.007L654.72 378.419C655.73 378.298 656.762 378.297 657.79 378.422C660.382 378.737 662.815 379.831 664.727 381.541C666.639 383.251 667.929 385.486 668.405 387.915C668.882 390.343 668.519 392.836 667.37 395.022C666.222 397.208 664.35 398.972 662.031 400.05C659.713 401.129 657.072 401.466 654.501 401.011C651.929 400.556 649.565 399.333 647.758 397.524C647.69 397.455 647.622 397.386 647.556 397.316ZM653.814 384.779C654.831 384.308 655.98 384.128 657.121 384.267C658.378 384.42 659.557 384.95 660.485 385.779C661.412 386.608 662.037 387.692 662.268 388.87C662.499 390.047 662.323 391.256 661.767 392.316C661.21 393.376 660.302 394.231 659.178 394.754C658.054 395.277 656.773 395.44 655.526 395.22C654.28 394.999 653.133 394.406 652.257 393.529C651.693 392.964 651.261 392.302 650.982 391.585C652.081 389.417 653.036 387.133 653.814 384.779ZM575.686 409.816L643.158 422.108C644.428 422.34 645.245 423.695 644.981 425.135C644.718 426.574 643.475 427.554 642.204 427.323L574.732 415.03C573.462 414.799 572.645 413.444 572.909 412.004C573.172 410.564 574.415 409.585 575.686 409.816Z" fill="#F9D9AA"/>
</g>
</svg>
